HIERARCHY
ROOT Hips
{
  OFFSET -331.093 83.8371 -317.828
  CHANNELS 6 Xposition Yposition Zposition Zrotation Xrotation Yrotation
  JOINT LeftUpLeg
  {
    OFFSET 8.64259 1.95398 -2.38835
    CHANNELS 3 Zrotation Xrotation Yrotation
    JOINT LeftLeg
    {
      OFFSET 43.7702 0 0
      CHANNELS 3 Zrotation Xrotation Yrotation
      JOINT LeftFoot
      {
        OFFSET 40.6238 0 0
        CHANNELS 3 Zrotation Xrotation Yrotation
        JOINT LeftToeBase
        {
          OFFSET 12.7242 0 0
          CHANNELS 3 Zrotation Xrotation Yrotation
          End Site
          {
            OFFSET 0 0 0
          }
        }
      }
    }
  }
  JOINT RightUpLeg
  {
    OFFSET -8.2249 1.95398 -2.59336
    CHANNELS 3 Zrotation Xrotation Yrotation
    JOINT RightLeg
    {
      OFFSET 43.5653 0 0
      CHANNELS 3 Zrotation Xrotation Yrotation
      JOINT RightFoot
      {
        OFFSET 40.6238 0 0
        CHANNELS 3 Zrotation Xrotation Yrotation
        JOINT RightToeBase
        {
          OFFSET 12.7242 0 0
          CHANNELS 3 Zrotation Xrotation Yrotation
          End Site
          {
            OFFSET 0 0 0
          }
        }
      }
    }
  }
  JOINT Spine
  {
    OFFSET 0.165834 0.87714 6.61349
    CHANNELS 3 Zrotation Xrotation Yrotation
    JOINT Spine1
    {
      OFFSET 7.38963 1.71661e-005 0
      CHANNELS 3 Zrotation Xrotation Yrotation
      JOINT Spine2
      {
        OFFSET 11.9445 1.14441e-005 0
        CHANNELS 3 Zrotation Xrotation Yrotation
        JOINT Spine3
        {
          OFFSET 14.7254 4.19617e-005 0
          CHANNELS 3 Zrotation Xrotation Yrotation
          JOINT Spine4
          {
            OFFSET 10.9679 0 0
            CHANNELS 3 Zrotation Xrotation Yrotation
            JOINT RightShoulder
            {
              OFFSET 2.46616 -1.6653 3.69651
              CHANNELS 3 Zrotation Xrotation Yrotation
              JOINT RightArm
              {
                OFFSET 13.0012 0 0
                CHANNELS 3 Zrotation Xrotation Yrotation
                JOINT RightForeArm
                {
                  OFFSET 28.7848 1.62311e-005 0
                  CHANNELS 3 Zrotation Xrotation Yrotation
                  JOINT RightHand
                  {
                    OFFSET 26.5688 1.62095e-005 0
                    CHANNELS 3 Zrotation Xrotation Yrotation
                    End Site
                    {
                      OFFSET 0 0 0
                    }
                  }
                }
              }
            }
            JOINT LeftShoulder
            {
              OFFSET 2.38034 -1.29275 -3.7523
              CHANNELS 3 Zrotation Xrotation Yrotation
              JOINT LeftArm
              {
                OFFSET 16.3182 6.07031e-005 0
                CHANNELS 3 Zrotation Xrotation Yrotation
                JOINT LeftForeArm
                {
                  OFFSET 27.0901 0 0
                  CHANNELS 3 Zrotation Xrotation Yrotation
                  JOINT LeftHand
                  {
                    OFFSET 24.5451 1.51738e-005 0
                    CHANNELS 3 Zrotation Xrotation Yrotation
                    End Site
                    {
                      OFFSET 0 0 0
                    }
                  }
                }
              }
            }
            JOINT Neck
            {
              OFFSET 5.0226 -0.0266342 0
              CHANNELS 3 Zrotation Xrotation Yrotation
              JOINT Head
              {
                OFFSET 6.69364 2.86102e-005 0
                CHANNELS 3 Zrotation Xrotation Yrotation
                End Site
                {
                  OFFSET 0 0 0
                }
              }
            }
          }
        }
      }
    }
  }
}
MOTION
Frames:	17
Frame Time:	0.0416667
41.1088 92.0347 -144.027 82.2597 -82.1557 84.523 -170.757 -11.6113 98.2626 -33.0737 26.1594 2.25639 51.8794 -6.26357 -4.29892 43.9312 21.6518 20.3828 176.658 35.1636 94.9487 -31.6256 4.22147 -0.319351 60.7054 0.102262 0.0272013 37.7988 -1.49662 -6.65197 -1.31968 7.52981 -90.4851 11.811 -2.85253 -0.663959 0.143131 -2.87898 -0.537675 -22.4116 -2.52103 -1.49103 -2.39895 -2.52103 -1.49102 90.6804 -43.2827 -100.973 34.9853 -9.92063 18.6039 -8.51271 -13.0091 -37.1047 -3.42108 -0.306556 4.1551 -95.1185 -47.1625 70.7707 -20.1724 8.53967 -2.67789 12.6682 9.96783 -51.2648 18.1201 1.72955 5.67261 -0.673943 0.847549 1.49779 -0.997267 0.647755 1.30007 
40.2991 92.6894 -133.835 93.6783 -83.9002 95.7913 -172.503 -4.16787 97.7109 -49.7032 22.1973 3.1255 42.7172 -11.8693 -6.10511 27.5774 4.00385 20.8811 176.307 31.1967 97.1041 -39.6446 3.06148 -0.688469 66.895 -1.74927 -1.15983 31.3426 -0.501057 -3.23898 -1.10265 7.60573 -90.425 11.6578 -2.39246 -0.597696 -0.011084 -2.41645 -0.491779 -22.5595 -2.10219 -1.28936 -2.54688 -2.10219 -1.28937 91.0586 -42.004 -100.672 37.1746 -8.19143 15.7126 -10.7249 -13.2156 -38.0241 -2.79131 -0.27007 4.95652 -95.9853 -47.725 69.6484 -21.5701 8.48573 -1.16277 9.30169 11.0027 -43.8865 17.846 1.67496 5.50824 -0.399984 0.44302 1.71908 -1.67679 0.205362 0.477584 
39.8332 95.0102 -124.016 101.886 -86.7741 103.558 -172.865 6.52439 95.5818 -59.6925 19.1144 2.09602 48.6352 -7.93374 -1.68651 31.8283 7.69969 18.3134 177.062 22.6664 98.1249 -36.6513 1.56688 -1.88073 70.4168 -3.22983 -1.94075 27.8256 -0.189199 -1.90685 -0.657776 7.56213 -90.2715 11.75 -1.43577 -0.390582 0.0798049 -1.45157 -0.327001 -22.4601 -1.252 -0.804087 -2.44748 -1.25201 -0.804093 90.7308 -41.1175 -101.46 37.8058 -11.2644 13.2399 -8.22696 -10.6342 -41.3165 -6.91255 -0.541577 3.53302 -96.2268 -48.6336 69.5823 -22.3985 9.6051 0.327431 8.21967 13.9245 -38.9638 14.9999 1.36276 5.11559 -1.57593 -0.19715 1.84202 -1.59937 -0.42722 -0.168894 
39.4426 96.888 -114.419 -105.903 -89.341 -106.377 -172.413 15.3321 91.4809 -56.0699 15.4136 -0.104305 53.7152 -4.66633 -0.42043 36.7202 12.2785 16.9681 177.827 14.7644 97.232 -32.6681 -1.30626 -4.07548 72.219 -3.96676 -2.33298 29.304 -0.151476 -1.16701 -0.208788 7.49878 -89.9168 11.8761 -0.375946 0.206507 0.205177 -0.366489 0.22285 -22.3303 -0.42063 0.0839779 -2.31763 -0.420625 0.0839697 90.6628 -40.6036 -101.716 37.5095 -12.7587 10.8589 -11.5205 -9.88307 -50.1165 -8.06028 -0.561169 2.43289 -95.7061 -48.5088 70.3151 -25.6007 6.92314 3.69979 9.65019 17.2711 -37.3377 13.1279 0.99799 3.60543 -2.74233 -0.281617 2.56762 -1.20195 -0.582962 -0.960591 
39.2957 97.9826 -105.193 -84.1501 -86.3845 -85.0727 -173.574 20.9384 90.224 -42.3107 10.5212 -1.3502 58.4539 -0.840597 1.26803 38.9194 16.4606 20.9582 176.211 6.56298 95.7664 -27.3474 -5.99605 -3.69675 72.3343 -4.42119 -2.46217 31.4094 -0.528332 -3.38235 0.14611 7.4504 -89.8144 11.9723 0.378078 0.329232 0.301378 0.3922 0.31227 -22.2337 0.261646 0.427641 -2.22103 0.261652 0.427642 91.0944 -38.6609 -101.507 37.3131 -13.1889 8.63856 -14.8965 -8.57412 -59.1014 -8.15181 -0.562818 2.25201 -95.3334 -48.5815 70.8905 -28.0029 6.75657 8.62441 8.57578 14.8882 -38.2373 13.0025 1.05012 4.05574 -3.59041 -0.0405027 3.66457 -0.764212 -0.453078 -1.5161 
39.31 97.5954 -96.23 -68.018 -83.9929 -68.6385 -176.441 25.2971 90.7149 -23.8235 8.13216 -1.08444 60.5117 1.10961 1.08547 40.5372 19.7348 23.6666 174.333 0.404389 94.6131 -22.8905 -8.24961 -2.78165 74.0146 -5.753 -2.94074 32.663 -0.57066 -3.29323 0.373006 7.33022 -89.8308 12.2128 0.821527 0.245967 0.542037 0.831568 0.209563 -21.9946 0.709623 0.481513 -1.98193 0.709623 0.481506 91.4521 -37.4879 -101.201 34.7398 -13.9253 3.9329 -15.9199 -6.52628 -64.5436 -9.54081 -0.560272 1.05657 -94.8467 -48.6925 71.6476 -29.8953 6.99968 11.9431 10.2675 16.8549 -39.834 12.5958 1.09581 4.64211 -2.82368 -0.0978745 5.3484 -1.60047 -0.722273 -2.96325 
39.39 96.0594 -87.0805 -64.8003 -81.393 -65.773 -179.246 28.7548 92.137 -8.04821 9.41974 -0.633314 58.8398 0.699863 0.753043 39.7676 18.3547 22.7681 173.087 -4.41981 92.8063 -21.9674 -11.1267 -3.42026 74.6437 -6.66806 -3.31972 38.8661 -1.29232 -5.34087 0.617137 7.26165 -89.7794 12.3494 1.33115 0.289574 0.67915 1.3426 0.230685 -21.8603 1.18257 0.676299 -1.84761 1.18257 0.676289 91.5577 -37.2591 -101.076 30.7211 -14.0823 -0.244108 -18.4695 -5.10937 -70.1444 -10.7946 -0.684004 1.79699 -94.4761 -49.0493 72.303 -31.1243 6.58065 14.6518 10.5253 16.4428 -40.9584 14.143 1.31253 5.28793 -1.47917 0.312902 5.78793 -3.70847 -0.387462 -2.45659 
39.7597 94.0175 -77.5521 -69.0628 -78.4315 -70.1396 -179.915 33.9722 93.4341 -8.54441 12.3177 -0.891993 60.4774 1.67119 2.15546 42.3561 20.5691 21.403 172.283 -7.82021 90.0349 -25.7838 -16.9924 -5.63658 73.5553 -6.68845 -3.48357 46.5117 -2.01237 -6.04455 0.922675 7.28153 -89.7231 12.3092 1.96503 0.330889 0.639672 1.97771 0.244048 -21.9052 1.77473 0.906339 -1.89257 1.77473 0.906341 91.6122 -36.2381 -101.266 29.98 -12.1401 -3.56895 -21.6385 -6.54837 -70.2997 -12.5295 -0.585568 -0.50893 -93.4926 -49.2731 73.8266 -31.7494 3.7415 17.0379 11.149 14.5734 -43.5059 16.4397 1.49477 5.1924 0.0276561 0.800684 6.25904 -6.05926 0.0102191 -2.51539 
40.4939 92.5403 -65.9072 -72.9244 -77.924 -75.1598 -178.404 36.1065 90.6284 -21.0232 11.9313 -1.56363 60.9248 1.14757 1.25831 39.8325 16.7022 19.3853 171.662 -9.50418 86.6005 -34.4037 -20.3477 -8.68041 65.0561 -1.44546 -1.21336 53.7463 -1.0192 -1.68921 1.05358 7.31878 -89.5139 12.2313 2.32436 0.710689 0.562284 2.35339 0.607641 -21.9845 2.00329 1.37661 -1.97189 2.0033 1.37661 91.5881 -36.2078 -101.317 30.81 -10.5993 -1.76304 -23.0757 -7.40629 -69.74 -14.5656 -0.91215 1.76758 -92.6108 -48.3063 74.881 -32.1074 2.79065 18.7463 12.9232 12.8237 -48.7316 18.7494 2.02077 6.88884 -0.112844 0.598109 4.7103 -7.90951 0.0403137 -1.99507 
40.8504 91.4855 -53.8809 -73.5216 -78.037 -76.0771 -176.103 37.9352 88.2996 -36.8855 14.0561 -2.5073 61.3112 1.62544 4.11414 39.9946 9.60576 2.93677 176.409 -1.97995 86.584 -50.8685 -13.0779 -8.59753 44.85 7.57923 6.27388 27.7203 -0.0889504 -0.987994 1.04963 7.21653 -89.4118 12.4326 2.36522 0.903787 0.763593 2.4027 0.798757 -21.7821 1.98424 1.57301 -1.7694 1.98424 1.57302 91.8573 -36.9536 -100.622 31.289 -11.7175 1.91477 -20.6339 -7.82694 -65.5027 -16.0625 -1.08305 2.54355 -91.9728 -46.9397 75.4856 -29.9654 2.24413 18.2607 12.9714 9.27159 -53.9444 20.4496 2.26756 7.27425 -0.806207 0.700825 3.18881 -10.5685 0.390795 -1.57145 
40.791 90.6047 -42.3731 -86.2441 -81.9583 -89.8346 -175.713 34.0093 83.6986 -48.3926 14.4276 -1.81767 65.0651 5.77713 8.44355 37.4344 4.7048 -5.49325 178.481 12.0947 86.274 -73.0656 0.415476 -5.24841 43.944 5.70008 4.85494 25.9642 -0.845745 -9.33871 0.517941 7.50923 -89.1733 11.8451 1.41906 1.49924 0.174201 1.48367 1.43533 -22.3571 0.902946 1.85632 -2.34446 0.902946 1.85631 91.9986 -38.3284 -100.003 31.5361 -10.4507 4.78393 -15.4095 -7.47087 -60.3761 -27.3272 -1.62707 1.68821 -91.5118 -44.0997 75.4436 -21.5882 0.512644 12.4723 11.7167 4.91691 -60.0574 23.747 2.50414 6.78068 -3.01361 1.01556 0.846939 -9.7756 0.920906 -0.0629219 
40.7891 91.0299 -33.0362 -92.5043 -85.5365 -97.2438 -176.777 27.6582 81.0263 -49.7182 14.3936 -0.944673 66.8132 8.74765 10.7339 44.709 9.51738 -6.22012 177.233 35.6549 88.5384 -87.504 5.63908 -2.93743 51.5132 2.02889 1.32593 33.0716 -1.80055 -11.0173 -0.0954271 7.66733 -88.9919 11.5304 0.281976 1.98235 -0.142016 0.368933 1.96802 -22.6652 -0.326696 1.97547 -2.65258 -0.3267 1.97546 92.3497 -38.3726 -99.3667 29.6291 -1.63564 10.9125 -10.4783 -1.94583 -65.559 -38.5182 -2.28535 1.66833 -89.6833 -39.5201 77.1866 -7.12607 -7.51872 -1.49232 10.9734 3.35766 -64.1854 23.432 2.55709 7.14953 -3.63583 1.58344 -0.257893 -10.758 1.51465 1.16766 
40.561 94.4516 -23.4197 -125.87 -88.0135 -126.603 -177.83 16.0962 86.1514 -41.4681 19.4088 0.516744 66.8317 9.37567 10.6483 45.8084 11.5418 -3.3772 172.957 57.1977 95.7888 -93.383 7.75207 -1.56714 53.1768 1.34295 0.788053 30.947 -1.48011 -10.4332 -0.84624 7.77262 -89.5711 11.3344 -1.48386 1.00304 -0.336318 -1.43829 1.06737 -22.8763 -1.71673 0.510623 -2.86367 -1.71673 0.510624 92.8404 -34.7578 -99.4173 21.6207 3.1019 18.0327 -11.3212 -0.230652 -75.0534 -41.6607 -1.675 -0.569401 -87.0739 -31.8252 79.7797 2.00432 -22.881 -8.66584 8.25269 2.55353 -68.4921 24.8188 2.57294 6.61298 -4.59138 3.40589 0.755935 -12.9942 2.97935 3.55726 
40.5573 102.037 -11.1214 -143.935 -85.7117 -138.808 -175.713 -1.87062 92.7481 -21.2227 20.9066 1.50173 55.0554 -2.73158 -1.13231 32.8758 4.68112 5.71935 163.632 65.8499 107.625 -90.813 5.60393 -0.0223601 54.4499 1.68947 1.0021 26.9639 -0.784344 -7.97641 -0.938705 8.05711 -90.5927 10.7506 -2.14251 -0.980839 -0.918913 -2.1836 -0.88558 -23.4613 -1.74869 -1.5795 -3.44865 -1.74869 -1.5795 93.9537 -30.4019 -98.4291 10.8389 4.60365 22.6195 -12.626 -0.106651 -77.8269 -39.5008 -1.96722 0.556001 -85.3563 -27.6251 82.0436 10.1772 -30.4286 -7.44383 2.92174 0.916317 -70.392 25.0713 1.82362 3.45765 -11.0561 4.2 3.81876 -10.6828 3.59617 6.17611 
40.1739 109.603 -0.500157 -179.503 -87.3521 -176.894 -174.145 4.46226 92.8428 -35.9212 18.8871 -0.0112752 46.6145 -8.76243 -3.73426 20.7007 -4.29037 13.4649 165.616 65.1237 100.946 -77.0439 2.057 1.64223 50.6304 3.84038 2.91183 26.3306 -0.818498 -8.98455 -1.24153 8.18718 -90.4597 10.4947 -2.68382 -0.671988 -1.17363 -2.7108 -0.553149 -23.7256 -2.35775 -1.44789 -3.71293 -2.35775 -1.4479 94.4488 -29.6442 -97.6384 3.2035 9.01704 24.8265 -9.12724 0.072576 -76.4332 -38.2013 -1.53431 -0.564637 -83.9802 -25.1374 84.2598 14.8643 -35.349 -4.50244 1.72033 1.4552 -74.7845 23.7541 1.43681 2.21305 -16.6735 3.79502 4.00035 -8.33094 3.46696 7.29566 
39.6621 114.587 10.9613 -154.222 -84.6085 -154.794 -169.965 20.0293 87.0177 -74.7221 17.1409 -0.0667503 53.006 -5.08726 0.58638 28.7338 2.79001 12.0106 175.187 49.8746 93.0157 -53.7897 -3.05349 0.439585 48.2355 5.33499 4.20738 24.3389 -0.824741 -11.3447 -0.789653 8.47098 -90.0675 9.93324 -1.60445 -0.00394821 -1.73676 -1.60307 0.0666801 -24.2791 -1.52908 -0.486077 -4.26642 -1.52909 -0.486082 95.0284 -27.5358 -96.9896 -0.31836 13.7274 29.222 -9.74976 -0.358993 -75.2668 -35.0574 -1.59878 0.0346783 -83.2452 -22.8716 85.344 17.8053 -33.8764 -1.51437 1.80388 1.42512 -76.7639 21.0236 1.2157 1.91338 -22.8611 3.20341 3.206 -5.75139 3.24005 6.72767 
38.2424 116.311 23.353 -150.15 -81.2579 -152.114 -165.838 31.3209 86.5605 -97.23 21.5606 1.35472 55.3466 -3.19083 2.81368 36.5279 10.31 12.5912 178.06 29.8926 92.1467 -27.2372 -7.02897 -1.65511 43.3452 6.53575 5.74005 21.8415 -0.496057 -10.841 -0.563527 8.5482 -89.7531 9.78005 -1.01144 0.570675 -1.89063 -0.985344 0.614634 -24.4288 -1.13619 0.240279 -4.41613 -1.13619 0.240279 95.8657 -25.6925 -95.6761 -3.19987 15.7523 31.1165 -7.34409 -0.238925 -76.0687 -30.7081 -1.23135 -0.56585 -82.012 -20.8576 87.6532 21.3189 -29.9622 4.85549 0.984928 0.918043 -79.8569 18.7451 0.98422 1.39782 -25.7342 3.24445 1.47539 -6.66741 3.16357 7.44812 
